<svg width="80" height="19" viewBox="0 0 80 19" fill="none" xmlns="http://www.w3.org/2000/svg">
<path d="M3.96 0C4.488 0 4.92 0.0800002 5.256 0.24C5.6 0.392 5.904 0.572001 6.168 0.780001C6.328 0.900001 6.448 0.916 6.528 0.828C6.616 0.732 6.676 0.512001 6.708 0.168001H6.984C6.968 0.472001 6.956 0.84 6.948 1.272C6.94 1.696 6.936 2.264 6.936 2.976H6.66C6.604 2.624 6.548 2.336 6.492 2.112C6.444 1.888 6.376 1.696 6.288 1.536C6.208 1.376 6.096 1.22 5.952 1.068C5.72 0.78 5.436 0.572 5.1 0.444C4.764 0.316 4.408 0.252 4.032 0.252C3.624 0.252 3.264 0.356 2.952 0.564001C2.64 0.764 2.376 1.052 2.16 1.428C1.952 1.804 1.792 2.248 1.68 2.76C1.568 3.272 1.512 3.832 1.512 4.44C1.512 5.064 1.572 5.632 1.692 6.144C1.812 6.648 1.984 7.084 2.208 7.452C2.44 7.812 2.716 8.092 3.036 8.292C3.364 8.484 3.728 8.58 4.128 8.58C4.456 8.58 4.796 8.516 5.148 8.388C5.5 8.252 5.78 8.048 5.988 7.776C6.212 7.536 6.364 7.268 6.444 6.972C6.532 6.668 6.604 6.256 6.66 5.736H6.936C6.936 6.472 6.94 7.068 6.948 7.524C6.956 7.972 6.968 8.352 6.984 8.664H6.708C6.676 8.32 6.62 8.104 6.54 8.016C6.468 7.928 6.344 7.94 6.168 8.052C5.872 8.26 5.556 8.444 5.22 8.604C4.892 8.756 4.468 8.832 3.948 8.832C3.156 8.832 2.464 8.66 1.872 8.316C1.28 7.972 0.82 7.476 0.492 6.828C0.164 6.18 0 5.4 0 4.488C0 3.592 0.168 2.808 0.504 2.136C0.848 1.464 1.316 0.940001 1.908 0.564001C2.5 0.188 3.184 0 3.96 0Z" fill="black"/>
<path d="M8.20003 0.168001C8.38403 0.176001 8.62003 0.184 8.90803 0.192C9.20403 0.2 9.49603 0.204 9.78403 0.204C10.168 0.204 10.532 0.2 10.876 0.192C11.228 0.184 11.476 0.180001 11.62 0.180001C12.516 0.180001 13.184 0.356 13.624 0.708C14.072 1.06 14.296 1.512 14.296 2.064C14.296 2.344 14.228 2.624 14.092 2.904C13.964 3.176 13.752 3.424 13.456 3.648C13.16 3.864 12.768 4.036 12.28 4.164V4.188C12.952 4.26 13.48 4.404 13.864 4.62C14.248 4.836 14.52 5.096 14.68 5.4C14.84 5.696 14.92 6.008 14.92 6.336C14.92 6.808 14.8 7.22 14.56 7.572C14.32 7.916 13.972 8.184 13.516 8.376C13.068 8.568 12.528 8.664 11.896 8.664C11.72 8.664 11.452 8.66 11.092 8.652C10.74 8.636 10.312 8.628 9.80803 8.628C9.50403 8.628 9.20403 8.632 8.90803 8.64C8.62003 8.64 8.38403 8.648 8.20003 8.664V8.424C8.47203 8.408 8.67603 8.376 8.81203 8.328C8.94803 8.28 9.03603 8.184 9.07603 8.04C9.12403 7.896 9.14803 7.68 9.14803 7.392V1.44C9.14803 1.144 9.12403 0.928 9.07603 0.792001C9.03603 0.648 8.94403 0.552001 8.80003 0.504001C8.66403 0.448 8.46403 0.416 8.20003 0.408V0.168001ZM11.368 0.408C11.024 0.408 10.796 0.476001 10.684 0.612001C10.58 0.748 10.528 1.024 10.528 1.44V7.392C10.528 7.672 10.552 7.884 10.6 8.028C10.648 8.172 10.732 8.268 10.852 8.316C10.98 8.364 11.164 8.388 11.404 8.388C12.124 8.388 12.644 8.208 12.964 7.848C13.292 7.48 13.456 6.96 13.456 6.288C13.456 5.672 13.292 5.196 12.964 4.86C12.644 4.524 12.112 4.356 11.368 4.356H10.204C10.204 4.356 10.204 4.324 10.204 4.26C10.204 4.188 10.204 4.152 10.204 4.152H11.236C11.676 4.152 12.016 4.064 12.256 3.888C12.496 3.704 12.66 3.464 12.748 3.168C12.836 2.864 12.88 2.54 12.88 2.196C12.88 1.604 12.764 1.16 12.532 0.864C12.3 0.56 11.912 0.408 11.368 0.408Z" fill="black"/>
<path d="M21.9258 0.168001C21.8938 0.472001 21.8698 0.768001 21.8538 1.056C21.8458 1.336 21.8418 1.552 21.8418 1.704C21.8418 1.856 21.8458 2 21.8538 2.136C21.8618 2.272 21.8698 2.384 21.8778 2.472H21.6018C21.5458 1.96 21.4578 1.556 21.3378 1.26C21.2258 0.964 21.0538 0.756 20.8218 0.636C20.5978 0.508 20.2818 0.444 19.8738 0.444H19.0458C18.7898 0.444 18.5938 0.468 18.4578 0.516001C18.3298 0.556 18.2418 0.644001 18.1938 0.780001C18.1458 0.908 18.1218 1.112 18.1218 1.392V7.44C18.1218 7.712 18.1458 7.916 18.1938 8.052C18.2418 8.188 18.3298 8.28 18.4578 8.328C18.5938 8.368 18.7898 8.388 19.0458 8.388H19.8258C20.2818 8.388 20.6418 8.316 20.9058 8.172C21.1778 8.028 21.3818 7.792 21.5178 7.464C21.6618 7.136 21.7698 6.688 21.8418 6.12H22.1178C22.0938 6.352 22.0818 6.656 22.0818 7.032C22.0818 7.192 22.0858 7.424 22.0938 7.728C22.1098 8.032 22.1338 8.344 22.1658 8.664C21.7578 8.648 21.2978 8.64 20.7858 8.64C20.2738 8.632 19.8178 8.628 19.4178 8.628C19.2338 8.628 18.9978 8.628 18.7098 8.628C18.4218 8.628 18.1098 8.632 17.7738 8.64C17.4458 8.64 17.1098 8.644 16.7658 8.652C16.4298 8.652 16.1058 8.656 15.7938 8.664V8.424C16.0658 8.408 16.2698 8.376 16.4058 8.328C16.5418 8.28 16.6298 8.184 16.6698 8.04C16.7178 7.896 16.7418 7.68 16.7418 7.392V1.44C16.7418 1.144 16.7178 0.928 16.6698 0.792001C16.6298 0.648 16.5378 0.552001 16.3938 0.504001C16.2578 0.448 16.0578 0.416 15.7938 0.408V0.168001C16.1058 0.176001 16.4298 0.184 16.7658 0.192C17.1098 0.192 17.4458 0.196 17.7738 0.204C18.1098 0.204 18.4218 0.204 18.7098 0.204C18.9978 0.204 19.2338 0.204 19.4178 0.204C19.7858 0.204 20.2018 0.204 20.6658 0.204C21.1378 0.196 21.5578 0.184 21.9258 0.168001ZM19.9338 4.272C19.9338 4.272 19.9338 4.312 19.9338 4.392C19.9338 4.472 19.9338 4.512 19.9338 4.512H17.7618C17.7618 4.512 17.7618 4.472 17.7618 4.392C17.7618 4.312 17.7618 4.272 17.7618 4.272H19.9338ZM20.2818 2.688C20.2498 3.144 20.2338 3.492 20.2338 3.732C20.2418 3.972 20.2458 4.192 20.2458 4.392C20.2458 4.592 20.2498 4.812 20.2578 5.052C20.2658 5.292 20.2858 5.64 20.3178 6.096H20.0418C20.0018 5.832 19.9498 5.58 19.8858 5.34C19.8218 5.092 19.7058 4.892 19.5378 4.74C19.3778 4.588 19.1258 4.512 18.7818 4.512V4.272C19.0378 4.272 19.2378 4.22 19.3818 4.116C19.5338 4.012 19.6498 3.876 19.7298 3.708C19.8098 3.54 19.8658 3.368 19.8978 3.192C19.9378 3.008 19.9738 2.84 20.0058 2.688H20.2818Z" fill="black"/>
<path d="M30.04 0.168001C30.008 0.504001 29.984 0.832 29.968 1.152C29.96 1.464 29.956 1.704 29.956 1.872C29.956 2.056 29.96 2.232 29.968 2.4C29.976 2.568 29.984 2.712 29.992 2.832H29.716C29.636 2.232 29.528 1.76 29.392 1.416C29.264 1.072 29.076 0.824001 28.828 0.672001C28.58 0.52 28.224 0.444 27.76 0.444H27.244V7.284C27.244 7.604 27.272 7.844 27.328 8.004C27.392 8.164 27.512 8.272 27.688 8.328C27.872 8.376 28.136 8.408 28.48 8.424V8.664C28.256 8.648 27.968 8.64 27.616 8.64C27.264 8.632 26.904 8.628 26.536 8.628C26.152 8.628 25.788 8.632 25.444 8.64C25.108 8.64 24.836 8.648 24.628 8.664V8.424C24.972 8.408 25.232 8.376 25.408 8.328C25.584 8.272 25.704 8.164 25.768 8.004C25.832 7.844 25.864 7.604 25.864 7.284V0.444H25.336C24.888 0.444 24.536 0.52 24.28 0.672001C24.024 0.824001 23.832 1.072 23.704 1.416C23.576 1.76 23.472 2.232 23.392 2.832H23.116C23.132 2.712 23.14 2.568 23.14 2.4C23.148 2.232 23.152 2.056 23.152 1.872C23.152 1.704 23.144 1.464 23.128 1.152C23.12 0.832 23.1 0.504001 23.068 0.168001C23.412 0.176001 23.788 0.184 24.196 0.192C24.604 0.2 25.016 0.204 25.432 0.204C25.848 0.204 26.224 0.204 26.56 0.204C26.896 0.204 27.268 0.204 27.676 0.204C28.084 0.204 28.496 0.2 28.912 0.192C29.328 0.184 29.704 0.176001 30.04 0.168001Z" fill="black"/>
<path d="M37.5781 0.168001V0.408C37.3061 0.416 37.0981 0.448 36.9541 0.504001C36.8181 0.552001 36.7261 0.648 36.6781 0.792001C36.6301 0.928 36.6061 1.144 36.6061 1.44V7.392C36.6061 7.68 36.6301 7.896 36.6781 8.04C36.7261 8.184 36.8181 8.28 36.9541 8.328C37.0981 8.376 37.3061 8.408 37.5781 8.424V8.664C37.3941 8.648 37.1501 8.64 36.8461 8.64C36.5501 8.632 36.2341 8.628 35.8981 8.628C35.5621 8.628 35.2261 8.632 34.8901 8.64C34.5541 8.64 34.2781 8.648 34.0621 8.664V8.424C34.3821 8.408 34.6261 8.376 34.7941 8.328C34.9621 8.28 35.0741 8.184 35.1301 8.04C35.1941 7.896 35.2261 7.68 35.2261 7.392V1.44C35.2261 1.144 35.1981 0.924 35.1421 0.780001C35.0941 0.636001 35.0021 0.54 34.8661 0.492C34.7381 0.436 34.5501 0.408 34.3021 0.408H34.1701C33.9141 0.408 33.7221 0.436 33.5941 0.492C33.4741 0.54 33.3901 0.640001 33.3421 0.792001C33.3021 0.936001 33.2701 1.152 33.2461 1.44C33.2061 1.912 33.1661 2.42 33.1261 2.964C33.0941 3.508 33.0501 4.056 32.9941 4.608C32.9381 5.16 32.8581 5.688 32.7541 6.192C32.6581 6.696 32.5261 7.148 32.3581 7.548C32.1901 7.94 31.9741 8.252 31.7101 8.484C31.4461 8.716 31.1221 8.832 30.7381 8.832C30.4421 8.832 30.1701 8.756 29.9221 8.604C29.6821 8.452 29.5621 8.224 29.5621 7.92C29.5621 7.672 29.6421 7.476 29.8021 7.332C29.9701 7.188 30.1701 7.116 30.4021 7.116C30.6101 7.116 30.7781 7.172 30.9061 7.284C31.0421 7.388 31.1101 7.532 31.1101 7.716C31.1101 7.932 31.0501 8.108 30.9301 8.244C30.8101 8.372 30.6461 8.484 30.4381 8.58C30.4941 8.588 30.5461 8.596 30.5941 8.604C30.6501 8.604 30.6981 8.604 30.7381 8.604C31.1061 8.604 31.4141 8.464 31.6621 8.184C31.9101 7.904 32.1101 7.524 32.2621 7.044C32.4221 6.556 32.5461 6.004 32.6341 5.388C32.7221 4.772 32.7901 4.128 32.8381 3.456C32.8861 2.776 32.9301 2.104 32.9701 1.44C32.9941 1.16 32.9821 0.948 32.9341 0.804C32.8941 0.66 32.7981 0.56 32.6461 0.504001C32.5021 0.448 32.2861 0.416 31.9981 0.408V0.168001C32.1661 0.176001 32.3661 0.184 32.5981 0.192C32.8301 0.2 33.0421 0.204 33.2341 0.204C33.4181 0.204 33.5941 0.2 33.7621 0.192C33.9381 0.176001 34.1141 0.168001 34.2901 0.168001C34.5941 0.168001 34.8701 0.176001 35.1181 0.192C35.3661 0.2 35.6621 0.204 36.0061 0.204C36.1741 0.204 36.3541 0.204 36.5461 0.204C36.7461 0.196 36.9341 0.192 37.1101 0.192C37.2941 0.184 37.4501 0.176001 37.5781 0.168001Z" fill="black"/>
<path d="M42.0927 0.120001L45.0207 7.656C45.1327 7.952 45.2607 8.152 45.4047 8.256C45.5567 8.36 45.6967 8.416 45.8247 8.424V8.664C45.6327 8.648 45.4047 8.64 45.1407 8.64C44.8847 8.632 44.6247 8.628 44.3607 8.628C44.0247 8.628 43.7127 8.632 43.4247 8.64C43.1367 8.64 42.9047 8.648 42.7287 8.664V8.424C43.1367 8.408 43.3927 8.34 43.4967 8.22C43.6087 8.092 43.5847 7.824 43.4247 7.416L41.2647 1.584L41.4567 1.368L39.4647 6.576C39.3207 6.936 39.2327 7.236 39.2007 7.476C39.1767 7.716 39.1967 7.904 39.2607 8.04C39.3327 8.176 39.4527 8.272 39.6207 8.328C39.7887 8.384 39.9967 8.416 40.2447 8.424V8.664C40.0047 8.648 39.7607 8.64 39.5127 8.64C39.2727 8.632 39.0447 8.628 38.8287 8.628C38.6367 8.628 38.4647 8.632 38.3127 8.64C38.1687 8.64 38.0367 8.648 37.9167 8.664V8.424C38.0847 8.384 38.2527 8.284 38.4207 8.124C38.5887 7.964 38.7487 7.692 38.9007 7.308L41.6847 0.120001C41.7487 0.120001 41.8167 0.120001 41.8887 0.120001C41.9607 0.120001 42.0287 0.120001 42.0927 0.120001ZM43.3527 5.208V5.448H39.7767L39.8967 5.208H43.3527Z" fill="black"/>
<path d="M51.2439 8.664V8.424C51.5159 8.408 51.7199 8.376 51.8559 8.328C51.9919 8.28 52.0799 8.184 52.1199 8.04C52.1679 7.896 52.1919 7.68 52.1919 7.392V1.44C52.1919 1.144 52.1679 0.928 52.1199 0.792001C52.0799 0.648 51.9879 0.552001 51.8439 0.504001C51.7079 0.448 51.5079 0.416 51.2439 0.408V0.168001C51.4439 0.176001 51.6919 0.184 51.9879 0.192C52.2919 0.2 52.5919 0.204 52.8879 0.204C53.2239 0.204 53.5359 0.2 53.8239 0.192C54.1119 0.184 54.3439 0.176001 54.5199 0.168001V0.408C54.2559 0.416 54.0559 0.448 53.9199 0.504001C53.7839 0.552001 53.6919 0.648 53.6439 0.792001C53.5959 0.928 53.5719 1.144 53.5719 1.44V7.392C53.5719 7.68 53.5959 7.896 53.6439 8.04C53.6919 8.184 53.7839 8.28 53.9199 8.328C54.0559 8.376 54.2559 8.408 54.5199 8.424V8.664C54.3439 8.648 54.1119 8.64 53.8239 8.64C53.5359 8.632 53.2239 8.628 52.8879 8.628C52.5919 8.628 52.2919 8.632 51.9879 8.64C51.6919 8.64 51.4439 8.648 51.2439 8.664ZM46.2039 8.664V8.424C46.4759 8.408 46.6799 8.376 46.8159 8.328C46.9519 8.28 47.0399 8.184 47.0799 8.04C47.1279 7.896 47.1519 7.68 47.1519 7.392V1.44C47.1519 1.144 47.1279 0.928 47.0799 0.792001C47.0399 0.648 46.9479 0.552001 46.8039 0.504001C46.6679 0.448 46.4679 0.416 46.2039 0.408V0.168001C46.3879 0.176001 46.6239 0.184 46.9119 0.192C47.2079 0.2 47.5239 0.204 47.8599 0.204C48.1639 0.204 48.4599 0.2 48.7479 0.192C49.0439 0.184 49.2879 0.176001 49.4799 0.168001V0.408C49.2159 0.416 49.0159 0.448 48.8799 0.504001C48.7439 0.552001 48.6519 0.648 48.6039 0.792001C48.5559 0.928 48.5319 1.144 48.5319 1.44V7.392C48.5319 7.68 48.5559 7.896 48.6039 8.04C48.6519 8.184 48.7439 8.28 48.8799 8.328C49.0159 8.376 49.2159 8.408 49.4799 8.424V8.664C49.2879 8.648 49.0439 8.64 48.7479 8.64C48.4599 8.632 48.1639 8.628 47.8599 8.628C47.5239 8.628 47.2079 8.632 46.9119 8.64C46.6239 8.64 46.3879 8.648 46.2039 8.664ZM47.9919 4.512V4.272H52.7319V4.512H47.9919Z" fill="black"/>
<path d="M59.0498 0.120001L61.9777 7.656C62.0897 7.952 62.2178 8.152 62.3618 8.256C62.5138 8.36 62.6537 8.416 62.7817 8.424V8.664C62.5897 8.648 62.3618 8.64 62.0978 8.64C61.8418 8.632 61.5817 8.628 61.3177 8.628C60.9818 8.628 60.6698 8.632 60.3818 8.64C60.0938 8.64 59.8617 8.648 59.6857 8.664V8.424C60.0938 8.408 60.3498 8.34 60.4538 8.22C60.5658 8.092 60.5418 7.824 60.3818 7.416L58.2218 1.584L58.4137 1.368L56.4217 6.576C56.2777 6.936 56.1898 7.236 56.1577 7.476C56.1338 7.716 56.1538 7.904 56.2178 8.04C56.2897 8.176 56.4098 8.272 56.5778 8.328C56.7458 8.384 56.9538 8.416 57.2018 8.424V8.664C56.9618 8.648 56.7178 8.64 56.4697 8.64C56.2297 8.632 56.0018 8.628 55.7858 8.628C55.5938 8.628 55.4217 8.632 55.2697 8.64C55.1257 8.64 54.9937 8.648 54.8737 8.664V8.424C55.0417 8.384 55.2098 8.284 55.3778 8.124C55.5457 7.964 55.7057 7.692 55.8577 7.308L58.6418 0.120001C58.7057 0.120001 58.7738 0.120001 58.8457 0.120001C58.9177 0.120001 58.9858 0.120001 59.0498 0.120001ZM60.3097 5.208V5.448H56.7337L56.8537 5.208H60.3097Z" fill="black"/>
<path d="M7.96 10C8.488 10 8.92 10.08 9.256 10.24C9.6 10.392 9.904 10.572 10.168 10.78C10.328 10.9 10.448 10.916 10.528 10.828C10.616 10.732 10.676 10.512 10.708 10.168H10.984C10.968 10.472 10.956 10.84 10.948 11.272C10.94 11.696 10.936 12.264 10.936 12.976H10.66C10.604 12.624 10.548 12.336 10.492 12.112C10.444 11.888 10.376 11.696 10.288 11.536C10.208 11.376 10.096 11.22 9.952 11.068C9.72 10.78 9.436 10.572 9.1 10.444C8.764 10.316 8.408 10.252 8.032 10.252C7.624 10.252 7.264 10.356 6.952 10.564C6.64 10.764 6.376 11.052 6.16 11.428C5.952 11.804 5.792 12.248 5.68 12.76C5.568 13.272 5.512 13.832 5.512 14.44C5.512 15.064 5.572 15.632 5.692 16.144C5.812 16.648 5.984 17.084 6.208 17.452C6.44 17.812 6.716 18.092 7.036 18.292C7.364 18.484 7.728 18.58 8.128 18.58C8.456 18.58 8.796 18.516 9.148 18.388C9.5 18.252 9.78 18.048 9.988 17.776C10.212 17.536 10.364 17.268 10.444 16.972C10.532 16.668 10.604 16.256 10.66 15.736H10.936C10.936 16.472 10.94 17.068 10.948 17.524C10.956 17.972 10.968 18.352 10.984 18.664H10.708C10.676 18.32 10.62 18.104 10.54 18.016C10.468 17.928 10.344 17.94 10.168 18.052C9.872 18.26 9.556 18.444 9.22 18.604C8.892 18.756 8.468 18.832 7.948 18.832C7.156 18.832 6.464 18.66 5.872 18.316C5.28 17.972 4.82 17.476 4.492 16.828C4.164 16.18 4 15.4 4 14.488C4 13.592 4.168 12.808 4.504 12.136C4.848 11.464 5.316 10.94 5.908 10.564C6.5 10.188 7.184 10 7.96 10Z" fill="#A0000B"/>
<path d="M16.292 10C17.076 10 17.764 10.172 18.356 10.516C18.956 10.86 19.42 11.356 19.748 12.004C20.076 12.644 20.24 13.424 20.24 14.344C20.24 15.24 20.072 16.024 19.736 16.696C19.4 17.368 18.932 17.892 18.332 18.268C17.732 18.644 17.048 18.832 16.28 18.832C15.488 18.832 14.796 18.66 14.204 18.316C13.612 17.972 13.152 17.476 12.824 16.828C12.496 16.18 12.332 15.4 12.332 14.488C12.332 13.592 12.5 12.808 12.836 12.136C13.18 11.464 13.648 10.94 14.24 10.564C14.832 10.188 15.516 10 16.292 10ZM16.244 10.216C15.748 10.216 15.316 10.396 14.948 10.756C14.58 11.116 14.296 11.612 14.096 12.244C13.896 12.876 13.796 13.608 13.796 14.44C13.796 15.288 13.908 16.028 14.132 16.66C14.356 17.284 14.66 17.768 15.044 18.112C15.428 18.448 15.856 18.616 16.328 18.616C16.824 18.616 17.252 18.436 17.612 18.076C17.98 17.716 18.264 17.22 18.464 16.588C18.672 15.948 18.776 15.216 18.776 14.392C18.776 13.536 18.66 12.796 18.428 12.172C18.204 11.548 17.9 11.068 17.516 10.732C17.14 10.388 16.716 10.216 16.244 10.216Z" fill="#A0000B"/>
<path d="M28.1338 10.168C28.1018 10.504 28.0778 10.832 28.0618 11.152C28.0538 11.464 28.0498 11.704 28.0498 11.872C28.0498 12.056 28.0538 12.232 28.0618 12.4C28.0698 12.568 28.0778 12.712 28.0858 12.832H27.8098C27.7298 12.232 27.6218 11.76 27.4858 11.416C27.3578 11.072 27.1698 10.824 26.9218 10.672C26.6738 10.52 26.3178 10.444 25.8538 10.444H25.3378V17.284C25.3378 17.604 25.3658 17.844 25.4218 18.004C25.4858 18.164 25.6058 18.272 25.7818 18.328C25.9658 18.376 26.2298 18.408 26.5738 18.424V18.664C26.3498 18.648 26.0618 18.64 25.7098 18.64C25.3578 18.632 24.9978 18.628 24.6298 18.628C24.2458 18.628 23.8818 18.632 23.5378 18.64C23.2018 18.64 22.9298 18.648 22.7218 18.664V18.424C23.0658 18.408 23.3258 18.376 23.5018 18.328C23.6778 18.272 23.7978 18.164 23.8618 18.004C23.9258 17.844 23.9578 17.604 23.9578 17.284V10.444H23.4298C22.9818 10.444 22.6298 10.52 22.3738 10.672C22.1178 10.824 21.9258 11.072 21.7978 11.416C21.6698 11.76 21.5658 12.232 21.4858 12.832H21.2098C21.2258 12.712 21.2338 12.568 21.2338 12.4C21.2418 12.232 21.2458 12.056 21.2458 11.872C21.2458 11.704 21.2378 11.464 21.2218 11.152C21.2138 10.832 21.1938 10.504 21.1618 10.168C21.5058 10.176 21.8818 10.184 22.2898 10.192C22.6978 10.2 23.1098 10.204 23.5258 10.204C23.9418 10.204 24.3178 10.204 24.6538 10.204C24.9898 10.204 25.3618 10.204 25.7698 10.204C26.1778 10.204 26.5898 10.2 27.0058 10.192C27.4218 10.184 27.7978 10.176 28.1338 10.168Z" fill="#A0000B"/>
<path d="M33.9744 18.664V18.424C34.2464 18.408 34.4504 18.376 34.5864 18.328C34.7224 18.28 34.8104 18.184 34.8504 18.04C34.8984 17.896 34.9224 17.68 34.9224 17.392V11.44C34.9224 11.144 34.8984 10.928 34.8504 10.792C34.8104 10.648 34.7184 10.552 34.5744 10.504C34.4384 10.448 34.2384 10.416 33.9744 10.408V10.168C34.1744 10.176 34.4224 10.184 34.7184 10.192C35.0224 10.2 35.3224 10.204 35.6184 10.204C35.9544 10.204 36.2664 10.2 36.5544 10.192C36.8424 10.184 37.0744 10.176 37.2504 10.168V10.408C36.9864 10.416 36.7864 10.448 36.6504 10.504C36.5144 10.552 36.4224 10.648 36.3744 10.792C36.3264 10.928 36.3024 11.144 36.3024 11.44V17.392C36.3024 17.68 36.3264 17.896 36.3744 18.04C36.4224 18.184 36.5144 18.28 36.6504 18.328C36.7864 18.376 36.9864 18.408 37.2504 18.424V18.664C37.0744 18.648 36.8424 18.64 36.5544 18.64C36.2664 18.632 35.9544 18.628 35.6184 18.628C35.3224 18.628 35.0224 18.632 34.7184 18.64C34.4224 18.64 34.1744 18.648 33.9744 18.664ZM28.9344 18.664V18.424C29.2064 18.408 29.4104 18.376 29.5464 18.328C29.6824 18.28 29.7704 18.184 29.8104 18.04C29.8584 17.896 29.8824 17.68 29.8824 17.392V11.44C29.8824 11.144 29.8584 10.928 29.8104 10.792C29.7704 10.648 29.6784 10.552 29.5344 10.504C29.3984 10.448 29.1984 10.416 28.9344 10.408V10.168C29.1184 10.176 29.3544 10.184 29.6424 10.192C29.9384 10.2 30.2544 10.204 30.5904 10.204C30.8944 10.204 31.1904 10.2 31.4784 10.192C31.7744 10.184 32.0184 10.176 32.2104 10.168V10.408C31.9464 10.416 31.7464 10.448 31.6104 10.504C31.4744 10.552 31.3824 10.648 31.3344 10.792C31.2864 10.928 31.2624 11.144 31.2624 11.44V17.392C31.2624 17.68 31.2864 17.896 31.3344 18.04C31.3824 18.184 31.4744 18.28 31.6104 18.328C31.7464 18.376 31.9464 18.408 32.2104 18.424V18.664C32.0184 18.648 31.7744 18.64 31.4784 18.64C31.1904 18.632 30.8944 18.628 30.5904 18.628C30.2544 18.628 29.9384 18.632 29.6424 18.64C29.3544 18.64 29.1184 18.648 28.9344 18.664ZM30.7224 14.512V14.272H35.4624V14.512H30.7224Z" fill="#A0000B"/>
<path d="M41.4682 10.168V10.408C41.2042 10.416 41.0042 10.448 40.8682 10.504C40.7322 10.552 40.6402 10.648 40.5922 10.792C40.5442 10.928 40.5202 11.144 40.5202 11.44V17.392C40.5202 17.68 40.5442 17.896 40.5922 18.04C40.6402 18.184 40.7322 18.28 40.8682 18.328C41.0042 18.376 41.2042 18.408 41.4682 18.424V18.664C41.2762 18.648 41.0322 18.64 40.7362 18.64C40.4482 18.632 40.1522 18.628 39.8482 18.628C39.5122 18.628 39.1962 18.632 38.9002 18.64C38.6122 18.64 38.3762 18.648 38.1922 18.664V18.424C38.4562 18.408 38.6562 18.376 38.7922 18.328C38.9362 18.28 39.0282 18.184 39.0682 18.04C39.1162 17.896 39.1402 17.68 39.1402 17.392V11.44C39.1402 11.144 39.1162 10.928 39.0682 10.792C39.0282 10.648 38.9362 10.552 38.7922 10.504C38.6562 10.448 38.4562 10.416 38.1922 10.408V10.168C38.3762 10.176 38.6122 10.184 38.9002 10.192C39.1962 10.2 39.5122 10.204 39.8482 10.204C40.1522 10.204 40.4482 10.2 40.7362 10.192C41.0322 10.184 41.2762 10.176 41.4682 10.168ZM44.6362 10.912C44.6362 10.912 44.6322 10.956 44.6242 11.044C44.6242 11.124 44.6242 11.208 44.6242 11.296C44.6242 11.384 44.6242 11.428 44.6242 11.428L40.0882 18.232L40.0762 17.776L44.6362 10.912ZM46.7482 10.168V10.408C46.4842 10.416 46.2842 10.448 46.1482 10.504C46.0122 10.552 45.9202 10.648 45.8722 10.792C45.8242 10.928 45.8002 11.144 45.8002 11.44V17.392C45.8002 17.68 45.8242 17.896 45.8722 18.04C45.9202 18.184 46.0122 18.28 46.1482 18.328C46.2842 18.376 46.4842 18.408 46.7482 18.424V18.664C46.5722 18.648 46.3362 18.64 46.0402 18.64C45.7442 18.632 45.4282 18.628 45.0922 18.628C44.8042 18.628 44.5082 18.632 44.2042 18.64C43.9082 18.64 43.6642 18.648 43.4722 18.664V18.424C43.7362 18.408 43.9362 18.376 44.0722 18.328C44.2082 18.28 44.3002 18.184 44.3482 18.04C44.3962 17.896 44.4202 17.68 44.4202 17.392V11.44C44.4202 11.144 44.3962 10.928 44.3482 10.792C44.3002 10.648 44.2082 10.552 44.0722 10.504C43.9362 10.448 43.7362 10.416 43.4722 10.408V10.168C43.6642 10.176 43.9082 10.184 44.2042 10.192C44.5082 10.2 44.8042 10.204 45.0922 10.204C45.4282 10.204 45.7442 10.2 46.0402 10.192C46.3362 10.184 46.5722 10.176 46.7482 10.168Z" fill="#A0000B"/>
<path d="M50.9604 10.168V10.408C50.6964 10.416 50.4964 10.448 50.3604 10.504C50.2244 10.552 50.1324 10.648 50.0844 10.792C50.0364 10.928 50.0124 11.144 50.0124 11.44V17.392C50.0124 17.68 50.0364 17.896 50.0844 18.04C50.1324 18.184 50.2244 18.28 50.3604 18.328C50.4964 18.376 50.6964 18.408 50.9604 18.424V18.664C50.7684 18.648 50.5244 18.64 50.2284 18.64C49.9404 18.632 49.6444 18.628 49.3404 18.628C49.0044 18.628 48.6884 18.632 48.3924 18.64C48.1044 18.64 47.8684 18.648 47.6844 18.664V18.424C47.9564 18.408 48.1604 18.376 48.2964 18.328C48.4324 18.28 48.5204 18.184 48.5604 18.04C48.6084 17.896 48.6324 17.68 48.6324 17.392V11.44C48.6324 11.144 48.6084 10.928 48.5604 10.792C48.5204 10.648 48.4284 10.552 48.2844 10.504C48.1484 10.448 47.9484 10.416 47.6844 10.408V10.168C47.8684 10.176 48.1044 10.184 48.3924 10.192C48.6884 10.2 49.0044 10.204 49.3404 10.204C49.6444 10.204 49.9404 10.2 50.2284 10.192C50.5244 10.184 50.7684 10.176 50.9604 10.168ZM50.6964 14.14C51.1924 14.14 51.6404 14.188 52.0404 14.284C52.4484 14.372 52.7884 14.54 53.0604 14.788C53.3404 15.028 53.5324 15.384 53.6364 15.856L53.9844 17.404C54.0644 17.756 54.1404 18.004 54.2124 18.148C54.2924 18.284 54.4164 18.352 54.5844 18.352C54.7124 18.344 54.8164 18.308 54.8964 18.244C54.9844 18.172 55.0764 18.076 55.1724 17.956L55.3404 18.088C55.1724 18.32 54.9844 18.504 54.7764 18.64C54.5684 18.768 54.2964 18.832 53.9604 18.832C53.6244 18.832 53.3324 18.748 53.0844 18.58C52.8444 18.412 52.6684 18.064 52.5564 17.536L52.2324 15.928C52.1604 15.6 52.0724 15.32 51.9684 15.088C51.8724 14.856 51.7204 14.68 51.5124 14.56C51.3044 14.432 51.0004 14.368 50.6004 14.368H49.7604V14.14H50.6964ZM50.0004 14.368V14.14C50.3364 14.132 50.6284 14.056 50.8764 13.912C51.1244 13.76 51.3524 13.56 51.5604 13.312L52.5564 12.052C52.8364 11.708 53.0164 11.416 53.0964 11.176C53.1764 10.928 53.1564 10.74 53.0364 10.612C52.9164 10.484 52.6924 10.416 52.3644 10.408V10.168C52.5324 10.176 52.7004 10.184 52.8684 10.192C53.0364 10.192 53.2044 10.196 53.3724 10.204C53.5404 10.204 53.7084 10.204 53.8764 10.204C54.0924 10.204 54.2884 10.2 54.4644 10.192C54.6484 10.184 54.8044 10.176 54.9324 10.168V10.408C54.6764 10.448 54.4244 10.54 54.1764 10.684C53.9284 10.828 53.6724 11.056 53.4084 11.368L50.9844 14.368H50.0004Z" fill="#A0000B"/>
<path d="M59.8155 10C60.5995 10 61.2875 10.172 61.8795 10.516C62.4795 10.86 62.9435 11.356 63.2715 12.004C63.5995 12.644 63.7635 13.424 63.7635 14.344C63.7635 15.24 63.5955 16.024 63.2595 16.696C62.9235 17.368 62.4555 17.892 61.8555 18.268C61.2555 18.644 60.5715 18.832 59.8035 18.832C59.0115 18.832 58.3195 18.66 57.7275 18.316C57.1355 17.972 56.6755 17.476 56.3475 16.828C56.0195 16.18 55.8555 15.4 55.8555 14.488C55.8555 13.592 56.0235 12.808 56.3595 12.136C56.7035 11.464 57.1715 10.94 57.7635 10.564C58.3555 10.188 59.0395 10 59.8155 10ZM59.7675 10.216C59.2715 10.216 58.8395 10.396 58.4715 10.756C58.1035 11.116 57.8195 11.612 57.6195 12.244C57.4195 12.876 57.3195 13.608 57.3195 14.44C57.3195 15.288 57.4315 16.028 57.6555 16.66C57.8795 17.284 58.1835 17.768 58.5675 18.112C58.9515 18.448 59.3795 18.616 59.8515 18.616C60.3475 18.616 60.7755 18.436 61.1355 18.076C61.5035 17.716 61.7875 17.22 61.9875 16.588C62.1955 15.948 62.2995 15.216 62.2995 14.392C62.2995 13.536 62.1835 12.796 61.9515 12.172C61.7275 11.548 61.4235 11.068 61.0395 10.732C60.6635 10.388 60.2395 10.216 59.7675 10.216Z" fill="#A0000B"/>
<path d="M64.7235 10.168C64.9075 10.176 65.1435 10.184 65.4315 10.192C65.7275 10.2 66.0195 10.204 66.3075 10.204C66.6915 10.204 67.0555 10.2 67.3995 10.192C67.7515 10.184 67.9995 10.18 68.1435 10.18C69.0395 10.18 69.7075 10.356 70.1475 10.708C70.5955 11.06 70.8195 11.512 70.8195 12.064C70.8195 12.344 70.7515 12.624 70.6155 12.904C70.4875 13.176 70.2755 13.424 69.9795 13.648C69.6835 13.864 69.2915 14.036 68.8035 14.164V14.188C69.4755 14.26 70.0035 14.404 70.3875 14.62C70.7715 14.836 71.0435 15.096 71.2035 15.4C71.3635 15.696 71.4435 16.008 71.4435 16.336C71.4435 16.808 71.3235 17.22 71.0835 17.572C70.8435 17.916 70.4955 18.184 70.0395 18.376C69.5915 18.568 69.0515 18.664 68.4195 18.664C68.2435 18.664 67.9755 18.66 67.6155 18.652C67.2635 18.636 66.8355 18.628 66.3315 18.628C66.0275 18.628 65.7275 18.632 65.4315 18.64C65.1435 18.64 64.9075 18.648 64.7235 18.664V18.424C64.9955 18.408 65.1995 18.376 65.3355 18.328C65.4715 18.28 65.5595 18.184 65.5995 18.04C65.6475 17.896 65.6715 17.68 65.6715 17.392V11.44C65.6715 11.144 65.6475 10.928 65.5995 10.792C65.5595 10.648 65.4675 10.552 65.3235 10.504C65.1875 10.448 64.9875 10.416 64.7235 10.408V10.168ZM67.8915 10.408C67.5475 10.408 67.3195 10.476 67.2075 10.612C67.1035 10.748 67.0515 11.024 67.0515 11.44V17.392C67.0515 17.672 67.0755 17.884 67.1235 18.028C67.1715 18.172 67.2555 18.268 67.3755 18.316C67.5035 18.364 67.6875 18.388 67.9275 18.388C68.6475 18.388 69.1675 18.208 69.4875 17.848C69.8155 17.48 69.9795 16.96 69.9795 16.288C69.9795 15.672 69.8155 15.196 69.4875 14.86C69.1675 14.524 68.6355 14.356 67.8915 14.356H66.7275C66.7275 14.356 66.7275 14.324 66.7275 14.26C66.7275 14.188 66.7275 14.152 66.7275 14.152H67.7595C68.1995 14.152 68.5395 14.064 68.7795 13.888C69.0195 13.704 69.1835 13.464 69.2715 13.168C69.3595 12.864 69.4035 12.54 69.4035 12.196C69.4035 11.604 69.2875 11.16 69.0555 10.864C68.8235 10.56 68.4355 10.408 67.8915 10.408Z" fill="#A0000B"/>
<path d="M75.8701 10.12L78.7981 17.656C78.9101 17.952 79.0381 18.152 79.1821 18.256C79.3341 18.36 79.4741 18.416 79.6021 18.424V18.664C79.4101 18.648 79.1821 18.64 78.9181 18.64C78.6621 18.632 78.4021 18.628 78.1381 18.628C77.8021 18.628 77.4901 18.632 77.2021 18.64C76.9141 18.64 76.6821 18.648 76.5061 18.664V18.424C76.9141 18.408 77.1701 18.34 77.2741 18.22C77.3861 18.092 77.3621 17.824 77.2021 17.416L75.0421 11.584L75.2341 11.368L73.2421 16.576C73.0981 16.936 73.0101 17.236 72.9781 17.476C72.9541 17.716 72.9741 17.904 73.0381 18.04C73.1101 18.176 73.2301 18.272 73.3981 18.328C73.5661 18.384 73.7741 18.416 74.0221 18.424V18.664C73.7821 18.648 73.5381 18.64 73.2901 18.64C73.0501 18.632 72.8221 18.628 72.6061 18.628C72.4141 18.628 72.2421 18.632 72.0901 18.64C71.9461 18.64 71.8141 18.648 71.6941 18.664V18.424C71.8621 18.384 72.0301 18.284 72.1981 18.124C72.3661 17.964 72.5261 17.692 72.6781 17.308L75.4621 10.12C75.5261 10.12 75.5941 10.12 75.6661 10.12C75.7381 10.12 75.8061 10.12 75.8701 10.12ZM77.1301 15.208V15.448H73.5541L73.6741 15.208H77.1301Z" fill="#A0000B"/>
</svg>
